HIERARCHY
ROOT SpineBase
{
  OFFSET 0.000000 0.000000 0.000000
  CHANNELS 6 Xposition Yposition Zposition Zrotation Xrotation Yrotation
  JOINT SpineMid
  {
    OFFSET 0.000000 28.431499 0.000000
    CHANNELS 3 Zrotation Xrotation Yrotation
    JOINT SpineShoulder
    {
      OFFSET -0.385302 20.988752 -0.635677
      CHANNELS 3 Zrotation Xrotation Yrotation
      JOINT Neck
      {
        OFFSET -0.240249 6.925810 -0.491026
        CHANNELS 3 Zrotation Xrotation Yrotation
        JOINT Head
        {
          OFFSET -2.303370 12.266444 2.249699
          CHANNELS 3 Zrotation Xrotation Yrotation
          End Site
          {
            OFFSET 0 0 0
          }
        }
      }
      JOINT ShoulderLeft
      {
        OFFSET -10.892353 -4.448009 12.006475
        CHANNELS 3 Zrotation Xrotation Yrotation
        JOINT ElbowLeft
        {
          OFFSET -2.227118 -31.252967 5.070549
          CHANNELS 3 Zrotation Xrotation Yrotation
          JOINT WristLeft
          {
            OFFSET -4.959089 -23.947453 -1.129036
            CHANNELS 3 Zrotation Xrotation Yrotation
            JOINT HandLeft
            {
              OFFSET 0.174424 -6.674996 -2.900081
              CHANNELS 3 Zrotation Xrotation Yrotation
              JOINT HandTipLeft
              {
                OFFSET -0.077724 -6.126079 1.390308
                CHANNELS 3 Zrotation Xrotation Yrotation
                End Site
                {
                  OFFSET 0 0 0
                }
              }
              JOINT ThumbLeft
              {
                OFFSET -0.336663 -0.723134 -2.909482
                CHANNELS 3 Zrotation Xrotation Yrotation
                End Site
                {
                  OFFSET 0 0 0
                }
              }
            }
          }
        }
      }
      JOINT ShoulderRight
      {
        OFFSET 6.303762 -4.936990 -11.346357
        CHANNELS 3 Zrotation Xrotation Yrotation
        JOINT ElbowRight
        {
          OFFSET 7.152246 -23.727434 -4.220313
          CHANNELS 3 Zrotation Xrotation Yrotation
          JOINT WristRight
          {
            OFFSET 0.879008 -28.894952 -7.269851
            CHANNELS 3 Zrotation Xrotation Yrotation
            JOINT HandRight
            {
              OFFSET -0.905121 -5.136561 -2.806599
              CHANNELS 3 Zrotation Xrotation Yrotation
              JOINT HandTipRight
              {
                OFFSET -0.220990 -6.181665 -1.024697
                CHANNELS 3 Zrotation Xrotation Yrotation
                End Site
                {
                  OFFSET 0 0 0
                }
              }
              JOINT ThumbRight
              {
                OFFSET 1.445109 -1.665961 -3.064804
                CHANNELS 3 Zrotation Xrotation Yrotation
                End Site
                {
                  OFFSET 0 0 0
                }
              }
            }
          }
        }
      }
    }
  }
  JOINT HipLeft
  {
    OFFSET -4.626565 -0.400466 0.855364
    CHANNELS 3 Zrotation Xrotation Yrotation
    JOINT KneeLeft
    {
      OFFSET -6.934974 -44.858711 2.185379
      CHANNELS 3 Zrotation Xrotation Yrotation
      JOINT AnkleLeft
      {
        OFFSET 3.032139 -38.685108 4.698504
        CHANNELS 3 Zrotation Xrotation Yrotation
        JOINT FootLeft
        {
          OFFSET -8.681172 -4.046308 -9.308422
          CHANNELS 3 Zrotation Xrotation Yrotation
          End Site
          {
            OFFSET 0 0 0
          }
        }
      }
    }
  }
  JOINT HipRight
  {
    OFFSET 2.677071 1.164780 -7.383209
    CHANNELS 3 Zrotation Xrotation Yrotation
    JOINT KneeRight
    {
      OFFSET 6.482019 -43.442824 -4.083029
      CHANNELS 3 Zrotation Xrotation Yrotation
      JOINT AnkleRight
      {
        OFFSET 7.569595 -38.552668 8.848290
        CHANNELS 3 Zrotation Xrotation Yrotation
        JOINT FootRight
        {
          OFFSET -7.445696 -4.924875 -8.319264
          CHANNELS 3 Zrotation Xrotation Yrotation
          End Site
          {
            OFFSET 0 0 0
          }
        }
      }
    }
  }
}
MOTION
Frames: 16
Frame Time: 0.033333
107.276041 89.047802 350.894716 0.329263 -0.739161 49.298226 0.345655 0.731640 -49.298309 -0.406294 -0.847670 -0.061192 1.259357 0.846352 -0.114281 0.000000 0.000000 0.000000 1.050470 -1.537593 0.332616 5.022393 6.883110 -1.933402 -21.190264 -13.630037 5.259022 19.969330 37.962947 -9.945794 0.000000 0.000000 0.000000 0.000000 0.000000 0.000000 0.405433 0.848082 0.055186 -0.437670 1.246853 0.152411 1.972680 -7.041335 0.150970 -4.195366 11.128504 0.530577 0.000000 0.000000 0.000000 0.000000 0.000000 0.000000 0.345655 0.731640 -49.298309 -0.000000 0.000000 0.000000 -0.000000 0.000000 0.000000 0.000000 0.000000 0.000000 0.345655 0.731640 -49.298309 -0.207484 0.991015 0.149108 15.106042 -14.977661 -3.547152 0.000000 0.000000 0.000000
107.386531 89.039612 350.895512 0.435943 -0.765720 49.258924 0.295647 0.830036 -49.258152 -0.244979 -0.867353 -0.049288 1.723638 0.989640 -0.226295 0.000000 0.000000 0.000000 -0.112559 -3.551389 0.292168 6.125087 9.560817 -2.326091 -23.108302 -11.887904 6.089016 20.380769 34.134134 -10.080379 0.000000 0.000000 0.000000 0.000000 0.000000 0.000000 0.244260 0.867555 0.045585 -0.530949 1.142967 0.173242 1.968705 -5.453131 -0.113090 -4.487199 9.833232 0.756262 0.000000 0.000000 0.000000 0.000000 0.000000 0.000000 0.862570 1.672663 -49.435034 0.271442 -0.978565 0.166819 -0.000000 0.000000 0.000000 0.000000 0.000000 0.000000 0.295647 0.830036 -49.258152 -0.469540 0.839559 0.060671 3.338367 -3.491110 -0.852645 0.000000 0.000000 0.000000
107.424027 89.013228 350.926683 0.540897 -0.765061 49.049341 0.223313 0.909949 -49.047503 -0.108471 -0.862471 -0.038406 2.433301 1.013686 -0.397939 0.000000 0.000000 0.000000 -1.367995 -4.532626 0.133146 6.933985 11.273576 -2.496957 -23.626407 -11.052123 6.481884 18.644362 29.035237 -9.730243 0.000000 0.000000 0.000000 0.000000 0.000000 0.000000 0.107905 0.862542 0.036778 -0.584295 1.059780 0.184252 2.002796 -3.405882 -0.490236 -4.314172 6.887658 0.934438 0.000000 0.000000 0.000000 0.000000 0.000000 0.000000 1.102767 2.128442 -49.313750 0.669818 -2.876741 0.186517 -0.314607 1.416666 0.076855 0.000000 0.000000 0.000000 0.223313 0.909949 -49.047503 -0.640626 0.669809 -0.011802 1.180318 -1.275635 0.034255 0.000000 0.000000 0.000000
107.424406 88.962576 350.949579 0.778057 -0.665433 48.740178 -0.012929 1.023708 -48.735544 0.189861 -0.813430 -0.013401 2.908068 0.590589 -0.629108 0.000000 0.000000 0.000000 -2.797950 -6.463676 -0.016963 7.902692 15.484468 -3.275625 -23.687937 -12.360854 6.353173 16.678061 29.146870 -9.641941 0.000000 0.000000 0.000000 0.000000 0.000000 0.000000 -0.190071 0.813381 0.016098 -0.570153 1.235806 0.186716 2.245800 -1.919476 -0.931877 -4.009654 4.788215 1.146849 0.000000 0.000000 0.000000 0.000000 0.000000 0.000000 1.321813 2.596323 -49.108004 0.975182 -4.581235 0.252910 -0.649399 2.545755 0.135551 0.000000 0.000000 0.000000 -0.012929 1.023708 -48.735544 -0.705857 0.586502 -0.043338 -0.595769 0.609370 0.426813 0.000000 0.000000 0.000000
107.400305 88.940530 350.990777 1.118168 -0.552256 48.385808 -0.295267 0.290246 -48.366709 -0.108519 -0.172158 0.006930 3.344307 -0.114539 -0.915345 0.000000 0.000000 0.000000 -3.500614 -6.223503 -0.123461 7.476757 16.467850 -3.332317 -23.435028 -12.021490 6.555501 13.841956 28.811724 -9.579110 0.000000 0.000000 0.000000 0.000000 0.000000 0.000000 -0.596361 0.752587 -0.012266 -0.475232 1.558537 0.172876 2.141372 -1.181310 -1.100324 -3.207111 4.493120 1.094389 0.000000 0.000000 0.000000 0.000000 0.000000 0.000000 1.514902 3.116636 -48.866581 1.279801 -6.341030 0.342221 -0.643006 3.898517 -1.150322 0.000000 0.000000 0.000000 -0.329815 1.202699 -48.376957 -0.441962 0.725226 0.043854 -3.511924 3.448120 0.386713 0.000000 0.000000 0.000000
107.114526 88.889997 351.252785 1.351948 -0.628574 47.113528 -0.259664 0.241563 -47.085108 -0.095125 -0.157376 0.019410 3.534980 -1.029202 -1.176000 0.000000 0.000000 0.000000 -4.311958 -4.950486 -0.292033 7.551612 17.383598 -3.484435 -22.313696 -12.924934 6.268526 11.373329 28.366364 -9.128475 0.000000 0.000000 0.000000 0.000000 0.000000 0.000000 -0.160550 -0.348334 -0.514255 -1.079543 3.821511 0.660320 2.155438 -3.149401 -0.991474 -2.903887 6.349247 0.949006 0.000000 0.000000 0.000000 0.000000 0.000000 0.000000 2.269257 3.495746 -47.729869 1.165319 -8.156319 0.451072 -0.806207 5.249593 -2.300601 0.000000 0.000000 0.000000 -0.459705 1.418277 -47.100422 -0.000000 0.000000 0.000000 -0.949355 1.997450 -1.343438 0.000000 0.000000 0.000000
106.607823 88.802167 351.718776 1.474159 -0.910898 45.314438 -0.220340 0.262008 -45.281772 -0.047426 -0.112034 0.025726 4.127379 -1.833065 -1.476914 0.000000 0.000000 0.000000 -4.468817 -2.671220 -0.367522 7.159704 17.606928 -3.606339 -20.732623 -12.713025 6.120261 9.261254 27.963164 -8.470714 0.000000 0.000000 0.000000 0.000000 0.000000 0.000000 -0.304633 -0.921310 -0.751000 -0.781026 5.682557 0.825138 2.138241 -4.302623 -1.064723 -3.480400 6.898433 1.169674 0.000000 0.000000 0.000000 0.000000 0.000000 0.000000 3.512486 3.723357 -46.070637 0.561303 -9.696260 0.543722 -0.782310 6.391280 -3.964359 0.000000 0.000000 0.000000 0.006713 2.981389 -45.075276 0.635856 -1.193223 -0.231220 1.689239 0.355109 -3.453706 0.000000 0.000000 0.000000
105.895345 88.735312 352.340590 1.391864 -1.358789 43.054604 -0.094767 0.256116 -43.024428 0.031581 -0.035035 0.027418 3.517090 -3.280353 -1.660668 0.000000 0.000000 0.000000 -5.408068 0.370376 -0.585538 9.324313 16.635692 -3.720458 -19.298666 -12.192718 5.613066 6.694253 26.036469 -7.248887 0.000000 0.000000 0.000000 0.000000 0.000000 0.000000 -0.248666 -1.810483 -1.119514 -0.304536 8.125205 1.014885 1.500418 -6.329612 -0.786863 -3.602223 8.742170 1.085383 0.000000 0.000000 0.000000 0.000000 0.000000 0.000000 5.210948 3.918569 -43.972298 -0.337687 -11.019596 0.633614 -0.769439 7.207351 -5.460594 0.000000 0.000000 0.000000 1.003871 4.101442 -42.684526 1.421658 -1.987866 -0.125893 2.900368 -1.048372 -5.658457 0.000000 0.000000 0.000000
105.082408 88.690547 352.971319 1.154430 -1.795498 40.330820 0.024918 0.182011 -40.310941 0.061236 0.032980 0.020323 2.047714 -5.073062 -1.758585 0.000000 0.000000 0.000000 -6.560270 3.088964 -0.772198 16.469625 12.332711 -3.417203 -21.232686 -9.263846 4.519568 4.339198 23.875331 -5.429845 0.000000 0.000000 0.000000 0.000000 0.000000 0.000000 0.434906 -3.128257 -1.697173 -0.117660 10.571013 1.313615 1.142172 -7.726684 -0.720189 -3.322433 10.080173 1.071524 0.000000 0.000000 0.000000 0.000000 0.000000 0.000000 6.878837 3.985499 -41.371515 -1.374572 -11.730724 0.679141 -0.673655 7.681011 -7.139016 0.000000 0.000000 0.000000 2.583489 5.394471 -39.840382 1.807012 -3.704501 -0.122672 8.894739 -6.399976 -10.562287 0.000000 0.000000 0.000000
104.089638 88.754859 353.738817 0.880873 -2.247575 38.230392 -0.073978 0.103485 -38.228557 -0.074891 0.107356 -0.006087 -0.202722 -7.174847 -1.801077 0.000000 0.000000 0.000000 -6.150141 5.191923 -0.721413 14.687681 9.884354 -2.433202 -12.225305 -4.187926 3.110905 1.255905 24.972762 -2.113118 0.000000 0.000000 0.000000 0.000000 0.000000 0.000000 0.826279 -3.829409 -2.009597 0.835925 12.342599 1.260537 0.753928 -8.775653 -0.664212 -4.187560 9.315353 1.442363 0.000000 0.000000 0.000000 0.000000 0.000000 0.000000 8.857921 4.095016 -39.434678 -2.591505 -12.323456 0.732474 -0.415324 7.975885 -9.394783 0.000000 0.000000 0.000000 4.454984 6.744943 -37.679431 2.009537 -5.441443 -0.041544 12.372349 -9.680528 -15.222333 0.000000 0.000000 0.000000
103.430889 88.749334 353.905791 0.128786 -2.447615 34.797051 -0.120987 0.043929 -34.836945 -0.169895 0.149677 -0.043197 -3.135923 -9.526299 -1.787841 0.000000 0.000000 0.000000 -7.831171 6.608478 -0.888149 15.175133 12.396937 -2.409642 -3.877985 -2.124743 2.156131 -3.654715 25.067918 0.184578 0.000000 0.000000 0.000000 0.000000 0.000000 0.000000 0.955720 -4.880372 -2.230473 2.683898 13.698181 0.936198 0.771243 -8.909183 -0.894738 -5.992865 8.685303 2.262429 0.000000 0.000000 0.000000 0.000000 0.000000 0.000000 10.007704 3.789361 -35.962898 -3.159223 -12.325576 0.716843 -0.012112 8.624607 -12.396121 0.000000 0.000000 0.000000 6.360591 7.713462 -34.222573 2.723410 -6.638361 0.396210 12.248514 -10.044966 -19.865359 0.000000 0.000000 0.000000
103.104928 88.694415 353.560429 -0.736501 -2.282899 30.507317 -0.091042 -0.013626 -30.588361 -0.207451 0.169951 -0.073972 -8.231020 -12.324605 -1.793597 0.000000 0.000000 0.000000 -11.019066 6.440605 -1.221981 16.345133 22.697510 -3.840754 3.877276 1.302590 3.544687 -8.855494 19.971373 0.412811 0.000000 0.000000 0.000000 0.000000 0.000000 0.000000 0.765754 -6.304649 -2.429037 4.897567 14.542150 0.456760 1.080505 -7.838806 -1.430573 -7.753351 8.353514 3.199241 0.000000 0.000000 0.000000 0.000000 0.000000 0.000000 10.359952 3.316892 -31.511663 -3.139758 -12.218214 0.677952 0.406390 9.632593 -15.516836 0.000000 0.000000 0.000000 7.917242 8.267352 -29.933847 3.470125 -7.196290 1.036525 9.013733 -7.033454 -23.294505 0.000000 0.000000 0.000000
103.185541 88.557998 352.937174 -1.746759 -2.084854 26.465181 -0.179199 0.004973 -26.592614 -0.265649 0.152264 -0.118340 -11.657023 -14.366681 -1.949195 0.000000 0.000000 0.000000 -13.575495 5.324365 -1.594572 13.442007 40.355842 -5.204326 13.392388 1.711071 9.394885 -15.301947 16.374248 -2.370502 0.000000 0.000000 0.000000 0.000000 0.000000 0.000000 0.317256 -7.624248 -2.534515 7.708841 15.351888 -0.257334 2.367138 -8.188780 -2.085336 -9.320544 9.265655 4.227500 0.000000 0.000000 0.000000 0.000000 0.000000 0.000000 10.637253 3.031749 -27.341584 -2.893371 -12.516126 0.622957 1.092336 10.868634 -18.672409 0.000000 0.000000 0.000000 9.082945 8.620901 -25.878412 3.969124 -7.594842 1.483645 7.138221 -4.713723 -26.186017 0.000000 0.000000 0.000000
103.571095 88.372429 351.948277 -2.930861 -1.702762 21.924156 -0.326248 0.035089 -22.096482 -0.330178 0.105677 -0.172392 -15.253876 -16.284792 -2.205879 0.000000 0.000000 0.000000 -16.547791 3.088972 -2.262919 -7.941758 69.521526 7.194152 21.561135 8.534911 24.328671 -23.969436 17.525250 -17.499997 0.000000 0.000000 0.000000 0.000000 0.000000 0.000000 -0.418332 -9.032405 -2.595299 11.164529 15.788910 -1.228857 4.136323 -8.596110 -2.911704 -10.971666 10.587261 5.390457 0.000000 0.000000 0.000000 0.000000 0.000000 0.000000 10.588976 2.585616 -22.613855 -2.282824 -12.787745 0.537182 1.957346 12.308605 -22.170542 0.000000 0.000000 0.000000 10.125975 8.734632 -21.314098 4.438279 -7.631709 1.954523 4.827666 -1.683727 -28.532808 0.000000 0.000000 0.000000
104.261591 88.137707 350.593738 -4.288642 -1.135347 16.805985 -0.539224 0.060629 -17.015475 -0.399907 0.030360 -0.237947 -18.969229 -18.034541 -2.574140 0.000000 0.000000 0.000000 -19.915550 -0.246888 -3.405242 -114.855548 70.133684 104.247374 8.018236 21.684338 44.446200 -15.567961 27.164366 -77.376275 0.000000 0.000000 0.000000 0.000000 0.000000 0.000000 -1.478383 -10.532550 -2.638075 15.302788 15.792242 -2.469715 6.332242 -9.043909 -3.916667 -12.718006 12.305795 6.657235 0.000000 0.000000 0.000000 0.000000 0.000000 0.000000 10.291922 1.910368 -17.259844 -1.307067 -13.028274 0.408683 3.006061 13.929011 -26.026904 0.000000 0.000000 0.000000 11.138429 8.645620 -16.164364 4.851024 -7.311941 2.427538 2.201789 1.851833 -30.251394 0.000000 0.000000 0.000000
105.257028 87.853833 348.873557 -5.818748 -0.382446 11.053063 -0.823078 0.059759 -11.284715 -0.473192 -0.073490 -0.317176 -22.723265 -19.572803 -3.051812 0.000000 0.000000 0.000000 -23.622817 -4.573287 -5.211370 -130.291443 50.695591 114.060722 -14.016908 17.245962 52.870453 -15.849725 10.910066 -171.699388 0.000000 0.000000 0.000000 0.000000 0.000000 0.000000 -2.905743 -12.121358 -2.696008 20.147493 15.275880 -3.980010 8.873283 -9.507235 -5.112506 -14.557852 14.401888 7.980488 0.000000 0.000000 0.000000 0.000000 0.000000 0.000000 9.859881 0.933422 -11.238463 0.031417 -13.234839 0.220019 4.240006 15.703207 -30.248360 0.000000 0.000000 0.000000 12.230488 8.407593 -10.381241 5.181856 -6.632346 2.883521 -0.640652 5.652823 -31.309746 0.000000 0.000000 0.000000
